<svg xmlns="http://www.w3.org/2000/svg" width="800" height="360" viewBox="0 0 800 360">
  <defs>
    <linearGradient id="g" x1="0%" y1="0%" x2="0%" y2="100%">
      <stop offset="0%" style="stop-color:#3d2e28"/>
      <stop offset="100%" style="stop-color:#1f1815"/>
    </linearGradient>
  </defs>
  <rect width="800" height="360" fill="url(#g)"/>
  <g opacity="0.85">
    <rect x="100" y="60" width="32" height="240" fill="#6b4f3a" rx="2"/>
    <rect x="140" y="50" width="32" height="250" fill="#8b6544" rx="2"/>
    <rect x="180" y="70" width="32" height="230" fill="#5c4030" rx="2"/>
    <rect x="220" y="45" width="32" height="255" fill="#a67c52" rx="2"/>
    <rect x="260" y="65" width="32" height="235" fill="#7a5a42" rx="2"/>
    <rect x="300" y="55" width="32" height="245" fill="#8b6544" rx="2"/>
    <rect x="340" y="75" width="32" height="225" fill="#6b4f3a" rx="2"/>
    <rect x="380" y="48" width="32" height="252" fill="#a67c52" rx="2"/>
    <rect x="420" y="68" width="32" height="232" fill="#5c4030" rx="2"/>
    <rect x="460" y="58" width="32" height="242" fill="#7a5a42" rx="2"/>
    <rect x="500" y="72" width="32" height="228" fill="#8b6544" rx="2"/>
    <rect x="540" y="52" width="32" height="248" fill="#6b4f3a" rx="2"/>
    <rect x="580" y="62" width="32" height="238" fill="#a67c52" rx="2"/>
    <rect x="620" y="78" width="32" height="222" fill="#5c4030" rx="2"/>
    <rect x="660" y="56" width="32" height="244" fill="#7a5a42" rx="2"/>
  </g>
  <text x="400" y="330" text-anchor="middle" fill="#b89a7a" font-family="system-ui,sans-serif" font-size="22">Librería</text>
</svg>
